<svg width="33" height="33" viewBox="0 0 33 33" fill="none" xmlns="http://www.w3.org/2000/svg">
<path d="M27.5859 14.6314V7.96021C27.5859 6.76808 26.5867 5.7688 25.3945 5.7688H7.86328C6.67116 5.7688 5.67188 6.76808 5.67188 7.96021V14.6314H10.989C11.8274 12.343 14.0508 10.6992 16.6289 10.6992C19.207 10.6992 21.4304 12.343 22.2688 14.6314H27.5859ZM27.5859 16.565H22.6555V16.7258C22.6555 20.0454 19.9485 22.7525 16.6289 22.7525C13.3093 22.7525 10.6023 20.0454 10.6023 16.7258V16.565H5.67188V25.4915C5.67188 26.6836 6.67116 27.6829 7.86328 27.6829H25.3945C26.5867 27.6829 27.5859 26.6836 27.5859 25.4915V16.565ZM7.5735 7.70239H8.66972V12.7297H7.5735V7.70239ZM9.76491 7.70239H10.8611V12.7297H9.76491V7.70239ZM11.9563 7.70239H13.0525V10.8611C12.6978 11.1189 12.3111 11.4087 11.9563 11.6995V7.70239ZM16.6289 20.8508C18.9172 20.8508 20.7219 19.0142 20.7219 16.7258C20.7219 14.4375 18.9172 12.6328 16.6289 12.6328C14.3406 12.6328 12.5039 14.4375 12.5039 16.7258C12.5039 19.0142 14.3406 20.8508 16.6289 20.8508ZM20.4641 7.70239H25.6523V12.7297H22.1719C21.7202 12.0532 21.1087 11.5046 20.4641 11.054V7.70239Z" fill="white"/>
</svg>
