<svg xmlns="http://www.w3.org/2000/svg" width="23" height="23" fill="none"><g clip-path="url(#a)"><path fill="#fff" d="M21.203 0H1.797C.804 0 0 .804 0 1.797v19.406C0 22.196.804 23 1.797 23h19.406c.993 0 1.797-.804 1.797-1.797V1.797C23 .804 22.196 0 21.203 0ZM8.283 16.311H6.043V9.137h2.242v7.174ZM7.104 8.24h-.019c-.813 0-1.338-.548-1.338-1.245 0-.71.543-1.244 1.37-1.244.826 0 1.334.535 1.352 1.244.004.692-.521 1.245-1.366 1.245ZM17.25 16.31h-2.543v-3.71c0-.97-.395-1.636-1.27-1.636-.67 0-1.043.45-1.214.88-.063.154-.054.37-.054.59v3.876H9.65s.032-6.576 0-7.174h2.52v1.128c.149-.494.953-1.195 2.237-1.195 1.595 0 2.844 1.033 2.844 3.252v3.99Z"/></g><defs><clipPath id="a"><path fill="#fff" d="M0 0h23v23H0z"/></clipPath></defs></svg>