<svg xml:space="preserve" width="800" height="800" viewBox="0 0 550.801 550.801"><path d="M488.426 197.014H475.2v-63.817c0-.401-.063-.799-.116-1.205-.021-2.534-.827-5.023-2.562-6.993L366.325 3.694c-.032-.034-.063-.045-.085-.076-.633-.707-1.371-1.298-2.151-1.804-.231-.158-.464-.287-.706-.422a11.325 11.325 0 0 0-2.131-.896c-.2-.053-.38-.135-.58-.19A10.939 10.939 0 0 0 358.193 0H97.2C85.282 0 75.6 9.693 75.6 21.601v175.413H62.377c-17.049 0-30.873 13.818-30.873 30.87v160.542c0 17.044 13.824 30.876 30.873 30.876h13.224V529.2c0 11.907 9.682 21.601 21.6 21.601h356.4c11.907 0 21.6-9.693 21.6-21.601V419.302h13.226c17.044 0 30.871-13.827 30.871-30.87v-160.54c-.001-17.06-13.828-30.878-30.872-30.878zM97.2 21.601h250.193v110.51c0 5.967 4.841 10.8 10.8 10.8H453.6v54.108H97.2V21.601zm288.837 318.362c0 14.935-6.855 26.679-17.128 35-11.992 9.55-32.062 14.939-64.863 14.939-18.362 0-32.073-1.229-40.395-2.446V225.413c9.806-1.951 29.615-3.419 48.22-3.419 22.761 0 36.725 2.205 48.717 9.294 11.506 6.128 19.828 17.381 19.828 32.313 0 14.678-8.564 28.389-27.18 35.245v.485c18.858 5.152 32.801 19.349 32.801 40.632zM80.592 306.93c0-49.443 31.566-86.41 80.28-86.41 50.67 0 78.323 37.935 78.323 83.468 0 54.101-32.801 86.896-81.013 86.896-48.961 0-77.59-36.957-77.59-83.954zm373.009 216.417H97.2V419.302h356.4v104.045zm27.4-195.856c0 46.992-22.528 63.393-58.746 63.393-8.563 0-19.828-1.461-27.169-3.929l4.156-30.096c5.146 1.714 11.754 2.932 19.1 2.932 15.662 0 25.45-7.093 25.45-32.79V223.22h37.215v104.271h-.006z"/><path d="M160.134 361.263c25.217 0 39.646-23.979 39.646-56.046 0-29.621-14.186-55.084-39.899-55.084-25.196 0-39.88 23.991-39.88 56.059-.001 32.31 15.158 55.071 40.133 55.071zM342.953 268.255c0-12.479-9.534-19.087-26.431-19.087-8.079 0-12.72.485-15.904.97v38.436h12.245c19.575-.001 30.09-8.08 30.09-20.319zM313.338 315.252h-12.72v46.496c3.67.49 8.079.49 14.438.49 16.886 0 31.825-6.365 31.825-23.736-.004-16.643-14.939-23.25-33.543-23.25z"/></svg>